<svg viewBox="0 0 320 640" xmlns="http://www.w3.org/2000/svg" font-family="Inter, Helvetica, Arial, sans-serif">
  <rect x="0.5" y="0.5" width="319" height="639" rx="30" fill="#ffffff" stroke="#d9d7cf"/>
  <rect x="125" y="14" width="70" height="5" rx="2.5" fill="#d9d7cf"/>

  <text x="20" y="50" font-size="18" fill="#6f6e69">←</text>
  <text x="160" y="51" font-size="15" font-weight="500" fill="#211f1d" text-anchor="middle">Barbell bench press</text>
  <line x1="0" y1="68" x2="320" y2="68" stroke="#eceae3"/>

  <text x="92" y="92" font-size="13" font-weight="500" fill="#211f1d" text-anchor="middle">How to</text>
  <rect x="62" y="100" width="60" height="2.5" rx="1" fill="#2f6fb0"/>
  <text x="225" y="92" font-size="13" fill="#a3a29d" text-anchor="middle">History</text>
  <line x1="0" y1="102" x2="320" y2="102" stroke="#eceae3"/>

  <g>
    <circle cx="160" cy="138" r="11" fill="#cfcdc4"/>
    <rect x="155" y="148" width="10" height="9" fill="#cfcdc4"/>
    <polygon points="136,158 184,158 178,236 142,236" fill="#cfcdc4"/>
    <rect x="116" y="166" width="14" height="60" rx="7" fill="#cfcdc4"/>
    <rect x="190" y="166" width="14" height="60" rx="7" fill="#cfcdc4"/>
    <rect x="116" y="224" width="13" height="42" rx="6" fill="#cfcdc4"/>
    <rect x="191" y="224" width="13" height="42" rx="6" fill="#cfcdc4"/>
    <rect x="143" y="236" width="16" height="110" rx="8" fill="#cfcdc4"/>
    <rect x="161" y="236" width="16" height="110" rx="8" fill="#cfcdc4"/>

    <ellipse cx="135" cy="166" rx="12" ry="10" fill="#f0997b"/>
    <ellipse cx="185" cy="166" rx="12" ry="10" fill="#f0997b"/>
    <rect x="116" y="170" width="14" height="34" rx="7" fill="#f4b9a1"/>
    <rect x="190" y="170" width="14" height="34" rx="7" fill="#f4b9a1"/>

    <path d="M143 162 q9 -4 16 0 v18 q-9 5 -16 0 z" fill="#d85a30"/>
    <path d="M177 162 q-9 -4 -16 0 v18 q9 5 16 0 z" fill="#d85a30"/>
  </g>

  <g font-size="11">
    <circle cx="92" cy="372" r="5" fill="#d85a30"/>
    <text x="102" y="376" fill="#6f6e69">Primary: chest</text>
    <circle cx="196" cy="372" r="5" fill="#f0997b"/>
    <text x="206" y="376" fill="#6f6e69">Shoulders, arms</text>
  </g>

  <line x1="16" y1="394" x2="304" y2="394" stroke="#eceae3"/>

  <text x="20" y="424" font-size="13" font-weight="500" fill="#211f1d">How to</text>
  <text x="20" y="448" font-size="13" fill="#6f6e69">Lying on the bench, lower the bar to the</text>
  <text x="20" y="468" font-size="13" fill="#6f6e69">chest under control and press until elbows</text>
  <text x="20" y="488" font-size="13" fill="#6f6e69">are extended, without bouncing.</text>

  <rect x="16" y="512" width="288" height="44" rx="10" fill="#f1efe8"/>
  <text x="30" y="531" font-size="12" fill="#6f6e69">Best mark (est. 1RM)</text>
  <text x="294" y="540" font-size="16" font-weight="500" fill="#211f1d" text-anchor="end">81 kg</text>

  <rect x="16" y="564" width="288" height="44" rx="10" fill="#ffffff" stroke="#cdd6df"/>
  <text x="160" y="591" font-size="14" font-weight="500" fill="#2f6fb0" text-anchor="middle">View full history</text>
</svg>