<svg viewBox="0 0 320 640" xmlns="http://www.w3.org/2000/svg" font-family="Inter, Helvetica, Arial, sans-serif">
  <rect x="0.5" y="0.5" width="319" height="639" rx="30" fill="#ffffff" stroke="#d9d7cf"/>
  <rect x="125" y="14" width="70" height="5" rx="2.5" fill="#d9d7cf"/>

  <text x="20" y="52" font-size="18" font-weight="500" fill="#211f1d">History</text>
  <text x="300" y="52" font-size="18" fill="#2f6fb0" text-anchor="end">+</text>
  <line x1="0" y1="68" x2="320" y2="68" stroke="#eceae3"/>

  <text x="20" y="92" font-size="11" fill="#a3a29d">This week</text>

  <g>
    <rect x="16" y="102" width="288" height="58" rx="10" fill="#ffffff" stroke="#e7e5df"/>
    <text x="30" y="126" font-size="14" font-weight="500" fill="#211f1d">Chest</text>
    <rect x="232" y="113" width="60" height="20" rx="6" fill="#faeeda"/>
    <text x="262" y="127" font-size="11" fill="#854f0b" text-anchor="middle">🏆 1 PR</text>
    <text x="30" y="146" font-size="12" fill="#6f6e69">Mon · 48 min · 18 sets</text>
  </g>
  <g>
    <rect x="16" y="168" width="288" height="58" rx="10" fill="#ffffff" stroke="#e7e5df"/>
    <text x="30" y="192" font-size="14" font-weight="500" fill="#211f1d">Legs</text>
    <text x="30" y="212" font-size="12" fill="#6f6e69">Tue · 55 min · 22 sets</text>
  </g>

  <text x="20" y="252" font-size="11" fill="#a3a29d">Last week</text>

  <g>
    <rect x="16" y="262" width="288" height="58" rx="10" fill="#ffffff" stroke="#e7e5df"/>
    <text x="30" y="286" font-size="14" font-weight="500" fill="#211f1d">Back</text>
    <text x="30" y="306" font-size="12" fill="#6f6e69">Thu · 51 min · 19 sets</text>
  </g>
  <g>
    <rect x="16" y="328" width="288" height="58" rx="10" fill="#ffffff" stroke="#e7e5df"/>
    <text x="30" y="352" font-size="14" font-weight="500" fill="#211f1d">Chest</text>
    <text x="30" y="372" font-size="12" fill="#6f6e69">Mon · 46 min · 17 sets</text>
  </g>

  <line x1="0" y1="586" x2="320" y2="586" stroke="#eceae3"/>
  <g text-anchor="middle">
    <path d="M44 600 l9 -8 l9 8 v9 h-18 z" fill="none" stroke="#a3a29d" stroke-width="2" stroke-linejoin="round"/>
    <text x="53" y="626" font-size="10" fill="#a3a29d">Home</text>
    <rect x="116" y="600" width="18" height="2.4" fill="#a3a29d"/><rect x="116" y="606" width="18" height="2.4" fill="#a3a29d"/><rect x="116" y="612" width="18" height="2.4" fill="#a3a29d"/>
    <text x="125" y="626" font-size="10" fill="#a3a29d">Routines</text>
    <rect x="188" y="598" width="18" height="16" rx="2" fill="none" stroke="#2f6fb0" stroke-width="2"/><rect x="188" y="598" width="18" height="5" fill="#2f6fb0"/>
    <text x="197" y="626" font-size="10" fill="#2f6fb0">History</text>
    <circle cx="269" cy="606" r="8" fill="none" stroke="#a3a29d" stroke-width="2"/><circle cx="269" cy="606" r="2.5" fill="#a3a29d"/>
    <text x="269" y="626" font-size="10" fill="#a3a29d">Settings</text>
  </g>
</svg>