<svg viewBox="0 0 320 640" xmlns="http://www.w3.org/2000/svg" font-family="Inter, Helvetica, Arial, sans-serif">
  <rect x="0.5" y="0.5" width="319" height="639" rx="30" fill="#ffffff" stroke="#d9d7cf"/>
  <rect x="125" y="14" width="70" height="5" rx="2.5" fill="#d9d7cf"/>

  <text x="20" y="56" font-size="13" fill="#6f6e69">Hi, Andrés</text>
  <text x="20" y="80" font-size="21" font-weight="500" fill="#211f1d">Today you train</text>

  <g text-anchor="middle">
    <text x="44" y="112" font-size="11" fill="#a3a29d">M</text>
    <circle cx="44" cy="132" r="13" fill="#2f6fb0"/><text x="44" y="136" font-size="10" fill="#ffffff">Ch</text>
    <text x="84" y="112" font-size="11" fill="#a3a29d">T</text>
    <circle cx="84" cy="132" r="13" fill="#f1efe8"/><text x="84" y="136" font-size="10" fill="#6f6e69">Lg</text>
    <text x="124" y="112" font-size="11" fill="#a3a29d">W</text>
    <circle cx="124" cy="132" r="13" fill="#f1efe8"/><text x="124" y="136" font-size="10" fill="#a3a29d">·</text>
    <text x="164" y="112" font-size="11" fill="#a3a29d">T</text>
    <circle cx="164" cy="132" r="13" fill="#f1efe8"/><text x="164" y="136" font-size="10" fill="#6f6e69">Bk</text>
    <text x="204" y="112" font-size="11" fill="#a3a29d">F</text>
    <circle cx="204" cy="132" r="13" fill="#f1efe8"/><text x="204" y="136" font-size="10" fill="#6f6e69">Sh</text>
    <text x="244" y="112" font-size="11" fill="#a3a29d">S</text>
    <circle cx="244" cy="132" r="13" fill="#f1efe8"/><text x="244" y="136" font-size="10" fill="#a3a29d">·</text>
    <text x="284" y="112" font-size="11" fill="#a3a29d">S</text>
    <circle cx="284" cy="132" r="13" fill="#f1efe8"/><text x="284" y="136" font-size="10" fill="#a3a29d">·</text>
  </g>

  <rect x="16" y="168" width="288" height="132" rx="12" fill="#ffffff" stroke="#d9d7cf"/>
  <text x="32" y="196" font-size="12" fill="#a3a29d">Today's routine</text>
  <text x="32" y="222" font-size="19" font-weight="500" fill="#211f1d">Chest</text>
  <text x="32" y="244" font-size="12" fill="#6f6e69">5 exercises · ~50 min</text>
  <rect x="32" y="258" width="256" height="42" rx="9" fill="#2f6fb0"/>
  <text x="160" y="285" font-size="15" font-weight="500" fill="#ffffff" text-anchor="middle">▶  Start workout</text>

  <rect x="16" y="316" width="288" height="46" rx="10" fill="#ffffff" stroke="#eceae3"/>
  <text x="32" y="344" font-size="13" fill="#6f6e69">↻  Repeat last workout</text>

  <line x1="0" y1="586" x2="320" y2="586" stroke="#eceae3"/>
  <g text-anchor="middle">
    <path d="M44 600 l9 -8 l9 8 v9 h-18 z" fill="none" stroke="#2f6fb0" stroke-width="2" stroke-linejoin="round"/>
    <text x="53" y="626" font-size="10" fill="#2f6fb0">Home</text>
    <rect x="116" y="600" width="18" height="2.4" fill="#a3a29d"/><rect x="116" y="606" width="18" height="2.4" fill="#a3a29d"/><rect x="116" y="612" width="18" height="2.4" fill="#a3a29d"/>
    <text x="125" y="626" font-size="10" fill="#a3a29d">Routines</text>
    <rect x="188" y="598" width="18" height="16" rx="2" fill="none" stroke="#a3a29d" stroke-width="2"/><rect x="188" y="598" width="18" height="5" fill="#a3a29d"/>
    <text x="197" y="626" font-size="10" fill="#a3a29d">History</text>
    <circle cx="269" cy="606" r="8" fill="none" stroke="#a3a29d" stroke-width="2"/><circle cx="269" cy="606" r="2.5" fill="#a3a29d"/>
    <text x="269" y="626" font-size="10" fill="#a3a29d">Settings</text>
  </g>
</svg>