<svg viewBox="0 0 320 640" xmlns="http://www.w3.org/2000/svg" font-family="Inter, Helvetica, Arial, sans-serif">
  <rect x="0.5" y="0.5" width="319" height="639" rx="30" fill="#ffffff" stroke="#d9d7cf"/>
  <rect x="125" y="14" width="70" height="5" rx="2.5" fill="#d9d7cf"/>

  <text x="20" y="52" font-size="17" fill="#6f6e69">←</text>
  <text x="42" y="51" font-size="16" font-weight="500" fill="#211f1d">Edit routine</text>
  <text x="300" y="51" font-size="13" font-weight="500" fill="#2f6fb0" text-anchor="end">Save</text>
  <line x1="0" y1="68" x2="320" y2="68" stroke="#eceae3"/>

  <text x="20" y="92" font-size="11" fill="#a3a29d">Name</text>
  <text x="20" y="116" font-size="18" font-weight="500" fill="#211f1d">Chest</text>
  <line x1="20" y1="128" x2="300" y2="128" stroke="#eceae3"/>

  <text x="20" y="152" font-size="11" fill="#a3a29d">Exercises</text>

  <g>
    <rect x="16" y="162" width="288" height="56" rx="10" fill="#ffffff" stroke="#e7e5df"/>
    <text x="34" y="194" font-size="16" fill="#a3a29d">⋮⋮</text>
    <text x="58" y="186" font-size="14" font-weight="500" fill="#211f1d">Barbell bench press</text>
    <text x="58" y="204" font-size="12" fill="#6f6e69">4 sets · 8–10 reps</text>
  </g>
  <g>
    <rect x="16" y="226" width="288" height="56" rx="10" fill="#ffffff" stroke="#e7e5df"/>
    <text x="34" y="258" font-size="16" fill="#a3a29d">⋮⋮</text>
    <text x="58" y="250" font-size="14" font-weight="500" fill="#211f1d">Incline dumbbell press</text>
    <text x="58" y="268" font-size="12" fill="#6f6e69">3 sets · 10–12 reps</text>
  </g>
  <g>
    <rect x="16" y="290" width="288" height="56" rx="10" fill="#ffffff" stroke="#e7e5df"/>
    <text x="34" y="322" font-size="16" fill="#a3a29d">⋮⋮</text>
    <text x="58" y="314" font-size="14" font-weight="500" fill="#211f1d">Cable fly</text>
    <text x="58" y="332" font-size="12" fill="#6f6e69">3 sets · 12–15 reps</text>
  </g>
  <g>
    <rect x="16" y="354" width="288" height="56" rx="10" fill="#ffffff" stroke="#e7e5df"/>
    <text x="34" y="386" font-size="16" fill="#a3a29d">⋮⋮</text>
    <text x="58" y="378" font-size="14" font-weight="500" fill="#211f1d">Parallel bar dips</text>
    <text x="58" y="396" font-size="12" fill="#6f6e69">3 sets · to failure</text>
  </g>

  <rect x="16" y="426" width="288" height="44" rx="10" fill="#ffffff" stroke="#cdd6df" stroke-dasharray="5 4"/>
  <text x="160" y="453" font-size="14" font-weight="500" fill="#2f6fb0" text-anchor="middle">+ Add exercise</text>
</svg>