<svg viewBox="0 0 320 640" xmlns="http://www.w3.org/2000/svg" font-family="Inter, Helvetica, Arial, sans-serif">
  <rect x="0.5" y="0.5" width="319" height="639" rx="30" fill="#ffffff" stroke="#d9d7cf"/>
  <rect x="125" y="14" width="70" height="5" rx="2.5" fill="#d9d7cf"/>

  <circle cx="160" cy="78" r="26" fill="#e1f5ee"/>
  <path d="M149 78 l7 7 l15 -16" fill="none" stroke="#1d9e75" stroke-width="3.5" stroke-linecap="round" stroke-linejoin="round"/>
  <text x="160" y="126" font-size="20" font-weight="500" fill="#211f1d" text-anchor="middle">Workout complete!</text>
  <text x="160" y="148" font-size="13" fill="#6f6e69" text-anchor="middle">Monday · Chest</text>

  <rect x="16" y="170" width="139" height="64" rx="10" fill="#f1efe8"/>
  <text x="30" y="194" font-size="12" fill="#6f6e69">Duration</text>
  <text x="30" y="220" font-size="22" font-weight="500" fill="#211f1d">48:12</text>
  <rect x="165" y="170" width="139" height="64" rx="10" fill="#f1efe8"/>
  <text x="179" y="194" font-size="12" fill="#6f6e69">Effective sets</text>
  <text x="179" y="220" font-size="22" font-weight="500" fill="#211f1d">18</text>

  <text x="20" y="266" font-size="12" fill="#a3a29d">Sets per muscle group</text>
  <g font-size="14">
    <rect x="16" y="278" width="288" height="40" rx="8" fill="#ffffff" stroke="#e7e5df"/>
    <text x="30" y="303" fill="#211f1d">Chest</text>
    <text x="294" y="303" font-weight="500" fill="#211f1d" text-anchor="end">12</text>

    <rect x="16" y="324" width="288" height="40" rx="8" fill="#ffffff" stroke="#e7e5df"/>
    <text x="30" y="349" fill="#211f1d">Arms</text>
    <text x="294" y="349" font-weight="500" fill="#211f1d" text-anchor="end">6</text>

    <rect x="16" y="370" width="288" height="40" rx="8" fill="#ffffff" stroke="#e7e5df"/>
    <text x="30" y="395" fill="#211f1d">Shoulders</text>
    <text x="294" y="395" font-weight="500" fill="#211f1d" text-anchor="end">4</text>
  </g>

  <rect x="16" y="426" width="288" height="58" rx="10" fill="#faeeda"/>
  <circle cx="44" cy="455" r="15" fill="#f6d99a"/>
  <path d="M38 450 h12 v4 a6 6 0 0 1 -12 0 z M41 460 h6 v5 h-6 z M37 467 h14 v3 h-14 z" fill="#854f0b"/>
  <text x="68" y="450" font-size="13" font-weight="500" fill="#854f0b">New record!</text>
  <text x="68" y="469" font-size="12" fill="#9a7322">Bench press · 62.5 kg × 9</text>

  <rect x="16" y="560" width="288" height="46" rx="10" fill="#2f6fb0"/>
  <text x="160" y="588" font-size="15" font-weight="500" fill="#ffffff" text-anchor="middle">Done</text>
</svg>