<svg viewBox="0 0 320 640" xmlns="http://www.w3.org/2000/svg" font-family="Inter, Helvetica, Arial, sans-serif">
  <rect x="0.5" y="0.5" width="319" height="639" rx="30" fill="#ffffff" stroke="#d9d7cf"/>
  <rect x="125" y="14" width="70" height="5" rx="2.5" fill="#d9d7cf"/>

  <text x="20" y="48" font-size="12" fill="#6f6e69">Monday · Chest</text>
  <text x="300" y="48" font-size="12" fill="#6f6e69" text-anchor="end">⏱ 42:15</text>
  <line x1="0" y1="62" x2="320" y2="62" stroke="#eceae3"/>

  <text x="20" y="86" font-size="11" fill="#a3a29d">Exercise 2 of 5</text>
  <text x="298" y="88" font-size="16" fill="#6f6e69" text-anchor="end">⋮</text>

  <text x="20" y="116" font-size="17" font-weight="500" fill="#211f1d">Barbell bench press</text>
  <rect x="20" y="128" width="190" height="24" rx="12" fill="#e6f1fb"/>
  <text x="33" y="144" font-size="12" fill="#0c447c">On this exercise · 06:12</text>

  <g font-size="11" fill="#a3a29d">
    <text x="34" y="182">#</text><text x="70" y="182">Weight</text><text x="150" y="182">Reps</text><text x="225" y="182">RIR</text>
  </g>

  <g font-size="15">
    <text x="33" y="214" fill="#6f6e69">1</text>
    <rect x="52" y="198" width="74" height="32" rx="8" fill="#f1efe8"/><text x="89" y="219" font-weight="500" fill="#211f1d" text-anchor="middle">60</text>
    <rect x="132" y="198" width="74" height="32" rx="8" fill="#f1efe8"/><text x="169" y="219" font-weight="500" fill="#211f1d" text-anchor="middle">10</text>
    <rect x="212" y="198" width="50" height="32" rx="8" fill="#f1efe8"/><text x="237" y="219" font-weight="500" fill="#211f1d" text-anchor="middle">3</text>
    <text x="286" y="220" font-size="18" fill="#1d9e75" text-anchor="middle">✓</text>
  </g>

  <g font-size="15">
    <text x="33" y="258" fill="#6f6e69">2</text>
    <rect x="52" y="242" width="74" height="32" rx="8" fill="#e6f1fb" stroke="#a9cdf0"/><text x="89" y="263" font-weight="500" fill="#0c447c" text-anchor="middle">62.5</text>
    <rect x="132" y="242" width="74" height="32" rx="8" fill="#f1efe8"/><text x="169" y="263" font-weight="500" fill="#211f1d" text-anchor="middle">9</text>
    <rect x="212" y="242" width="50" height="32" rx="8" fill="#f1efe8"/><text x="237" y="263" font-weight="500" fill="#211f1d" text-anchor="middle">2</text>
    <circle cx="286" cy="258" r="9" fill="none" stroke="#cfcdc4" stroke-width="2"/>
  </g>

  <rect x="20" y="290" width="134" height="38" rx="9" fill="#ffffff" stroke="#d9d7cf"/><text x="87" y="314" font-size="13" font-weight="500" fill="#211f1d" text-anchor="middle">+ Set</text>
  <rect x="166" y="290" width="134" height="38" rx="9" fill="#ffffff" stroke="#d9d7cf"/><text x="233" y="314" font-size="13" font-weight="500" fill="#211f1d" text-anchor="middle">Duplicate</text>

  <g>
    <circle cx="140" cy="360" r="3.5" fill="#cfcdc4"/>
    <rect x="151" y="356.5" width="18" height="7" rx="3.5" fill="#2f6fb0"/>
    <circle cx="180" cy="360" r="3.5" fill="#cfcdc4"/>
    <circle cx="194" cy="360" r="3.5" fill="#cfcdc4"/>
    <circle cx="208" cy="360" r="3.5" fill="#cfcdc4"/>
  </g>

  <rect x="20" y="556" width="280" height="46" rx="11" fill="#2f6fb0"/>
  <text x="160" y="584" font-size="15" font-weight="500" fill="#ffffff" text-anchor="middle">Next exercise  →</text>
  <text x="160" y="620" font-size="12" fill="#6f6e69" text-anchor="middle">Finish workout</text>
</svg>