<svg viewBox="0 0 320 640" xmlns="http://www.w3.org/2000/svg" font-family="Inter, Helvetica, Arial, sans-serif">
  <rect x="0.5" y="0.5" width="319" height="639" rx="30" fill="#ffffff" stroke="#d9d7cf"/>
  <rect x="125" y="14" width="70" height="5" rx="2.5" fill="#d9d7cf"/>
  <text x="20" y="58" font-size="20" font-weight="500" fill="#211f1d">Weekly plan</text>
  <text x="300" y="58" font-size="13" font-weight="500" fill="#2f6fb0" text-anchor="end">Edit</text>
  <line x1="0" y1="74" x2="320" y2="74" stroke="#eceae3"/>

  <g>
    <rect x="16" y="86" width="288" height="56" rx="10" fill="#ffffff" stroke="#e7e5df"/>
    <rect x="16" y="86" width="4" height="56" rx="2" fill="#2f6fb0"/>
    <text x="34" y="111" font-size="12" fill="#a3a29d">Monday</text>
    <text x="34" y="129" font-size="15" font-weight="500" fill="#211f1d">Chest</text>
    <text x="296" y="120" font-size="12" fill="#6f6e69" text-anchor="end">5 ex.</text>
  </g>
  <g>
    <rect x="16" y="150" width="288" height="56" rx="10" fill="#ffffff" stroke="#e7e5df"/>
    <rect x="16" y="150" width="4" height="56" rx="2" fill="#2f6fb0"/>
    <text x="34" y="175" font-size="12" fill="#a3a29d">Tuesday</text>
    <text x="34" y="193" font-size="15" font-weight="500" fill="#211f1d">Legs</text>
    <text x="296" y="184" font-size="12" fill="#6f6e69" text-anchor="end">6 ex.</text>
  </g>
  <g>
    <rect x="16" y="214" width="288" height="56" rx="10" fill="#f7f6f1" stroke="#eceae3"/>
    <text x="34" y="239" font-size="12" fill="#a3a29d">Wednesday</text>
    <text x="34" y="257" font-size="15" font-weight="500" fill="#a3a29d">Rest</text>
  </g>
  <g>
    <rect x="16" y="278" width="288" height="56" rx="10" fill="#ffffff" stroke="#e7e5df"/>
    <rect x="16" y="278" width="4" height="56" rx="2" fill="#2f6fb0"/>
    <text x="34" y="303" font-size="12" fill="#a3a29d">Thursday</text>
    <text x="34" y="321" font-size="15" font-weight="500" fill="#211f1d">Back</text>
    <text x="296" y="312" font-size="12" fill="#6f6e69" text-anchor="end">5 ex.</text>
  </g>
  <g>
    <rect x="16" y="342" width="288" height="56" rx="10" fill="#ffffff" stroke="#e7e5df"/>
    <rect x="16" y="342" width="4" height="56" rx="2" fill="#2f6fb0"/>
    <text x="34" y="367" font-size="12" fill="#a3a29d">Friday</text>
    <text x="34" y="385" font-size="15" font-weight="500" fill="#211f1d">Shoulders &amp; arms</text>
    <text x="296" y="376" font-size="12" fill="#6f6e69" text-anchor="end">6 ex.</text>
  </g>
  <g>
    <rect x="16" y="406" width="288" height="56" rx="10" fill="#f7f6f1" stroke="#eceae3"/>
    <text x="34" y="431" font-size="12" fill="#a3a29d">Saturday</text>
    <text x="34" y="449" font-size="15" font-weight="500" fill="#a3a29d">Rest</text>
  </g>
  <g>
    <rect x="16" y="470" width="288" height="56" rx="10" fill="#f7f6f1" stroke="#eceae3"/>
    <text x="34" y="495" font-size="12" fill="#a3a29d">Sunday</text>
    <text x="34" y="513" font-size="15" font-weight="500" fill="#a3a29d">Rest</text>
  </g>

  <text x="160" y="556" font-size="11" fill="#a3a29d" text-anchor="middle">Days with no routine = rest (implicit)</text>

  <rect x="16" y="572" width="288" height="44" rx="10" fill="#ffffff" stroke="#cdd6df"/>
  <text x="160" y="599" font-size="14" font-weight="500" fill="#2f6fb0" text-anchor="middle">Change starter template</text>
</svg>